<?xml version="1.0" encoding="iso-8859-1"?>
<!-- Generator: Adobe Illustrator 19.1.0, SVG Export Plug-In . SVG Version: 6.00 Build 0)  -->
<svg version="1.1" xmlns="http://www.w3.org/2000/svg" xmlns:xlink="http://www.w3.org/1999/xlink" x="0px" y="0px"
	 viewBox="0 0 640 640" style="enable-background:new 0 0 640 640;" xml:space="preserve">
<g id="Layer_2">
	<g>
		<polygon style="fill:#B2DDF3;" points="12.071,635 320,327.071 627.929,635 		"/>
		<path style="fill:#FFFFFF;" d="M320,334.142L615.858,630H24.142L320,334.142 M320,320L0,640h640L320,320L320,320z"/>
	</g>
</g>
<g id="Layer_3">
	<g>
		<polygon style="fill:#B2DDF3;" points="5,12.071 312.929,320 5,627.929 		"/>
		<path style="fill:#FFFFFF;" d="M10,24.071l295.858,295.893L10,615.858V24 M0,0v640l320-320L0,0L0,0z"/>
	</g>
	<path style="fill:#B2DDF3;" d="M640,320"/>
</g>
<g id="Layer_4">
	<g>
		
			<rect x="371.863" y="211.863" transform="matrix(-0.7071 0.7071 -0.7071 -0.7071 1045.6854 206.8629)" style="fill:#B2DDF3;" width="216.274" height="216.274"/>
		<path style="fill:#FFFFFF;" d="M480,174.142L625.858,320L480,465.858L334.142,320L480,174.142 M480,160L320,320l160,160l160-160
			L480,160L480,160z"/>
	</g>
</g>
<g id="Layer_5">
	<g>
		<polygon style="fill:#B2DDF3;" points="172.071,165 467.929,165 320,312.929 		"/>
		<path style="fill:#FFFFFF;" d="M455.929,170L320.036,305.858L184.142,170H456 M480,160H160l160,160L480,160L480,160z"/>
	</g>
</g>
<g id="Layer_6">
	<g>
		<polygon style="fill:#B2DDF3;" points="162.071,155 12.071,5 317.929,5 467.929,155 		"/>
		<path style="fill:#FFFFFF;" d="M315.929,10l139.929,140H164.142l-140-140H316 M320,0H0l160,160h320L320,0L320,0z"/>
	</g>
</g>
<g id="Layer_7">
	<g>
		<polygon style="fill:#B2DDF3;" points="486.071,480 634,332.071 634,627.929 		"/>
		<path style="fill:#FFFFFF;" d="M629,344v271.858L493.142,480L629,344.071 M639,320L479,480l160,160V320L639,320z"/>
	</g>
</g>
<g id="Layer_8">
	<g>
		<polygon style="fill:#B2DDF3;" points="332.071,6 634,6 634,307.929 		"/>
		<path style="fill:#FFFFFF;" d="M629,11v284.858L344.142,11H629 M639,1H320l319,319V1L639,1z"/>
	</g>
</g>
<g id="Layer_1">
	<g>
		<polygon style="fill:#FF0000;" points="285.661,379.356 157.599,413.715 251.313,320 157.599,226.286 285.661,260.644 
			320,132.651 354.34,260.644 482.4,226.286 388.687,320 482.4,413.715 354.34,379.356 320,507.349 		"/>
		<path style="fill:#FFFFFF;" d="M320,171.242l27.272,101.651l101.651-27.272L374.544,320l74.379,74.379l-101.651-27.272
			L320,468.758l-27.272-101.651l-101.651,27.272L265.456,320l-74.379-74.379l101.651,27.272L320,171.242 M448.923,245.621h0.005
			 M320,94.061l-19.317,71.999l-22.09,82.334l-82.334-22.09l-72.138-19.354l52.813,52.813L237.171,320l-60.237,60.237
			l-52.813,52.813l72.138-19.354l82.334-22.09l22.09,82.334L320,545.939l19.317-71.999l22.09-82.334l82.334,22.09l72.138,19.354
			l-52.813-52.813L402.829,320l60.237-60.237l52.813-52.813l-72.138,19.354l-82.334,22.09l-22.09-82.334L320,94.061L320,94.061z"/>
	</g>
</g>
</svg>
